<svg width="36" height="36" viewBox="0 0 36 36" fill="none" xmlns="http://www.w3.org/2000/svg">
<circle cx="18" cy="18" r="16" stroke="#0063A8" stroke-width="2.76396" stroke-dasharray="0.98 8.39"/>
<mask id="path-2-inside-1_1_1058" fill="white">
<path fill-rule="evenodd" clip-rule="evenodd" d="M17.3889 6.81241L10.4831 19.9672C10.1336 20.6331 10.6165 21.432 11.3685 21.432H15.0514L14.8715 27.9452C14.813 30.0634 17.6566 30.8062 18.6415 28.93L25.5473 15.7752C25.8969 15.1094 25.414 14.3104 24.6619 14.3104H20.979L21.159 7.79727C21.2175 5.6791 18.3738 4.93625 17.3889 6.81241Z"/>
</mask>
<path fill-rule="evenodd" clip-rule="evenodd" d="M17.3889 6.81241L10.4831 19.9672C10.1336 20.6331 10.6165 21.432 11.3685 21.432H15.0514L14.8715 27.9452C14.813 30.0634 17.6566 30.8062 18.6415 28.93L25.5473 15.7752C25.8969 15.1094 25.414 14.3104 24.6619 14.3104H20.979L21.159 7.79727C21.2175 5.6791 18.3738 4.93625 17.3889 6.81241Z" fill="#FFDF4E"/>
<path d="M10.4831 19.9672L11.712 20.6123H11.712L10.4831 19.9672ZM17.3889 6.81241L18.6177 7.4575V7.4575L17.3889 6.81241ZM15.0514 21.432L16.4388 21.4704L16.4782 20.0442H15.0514V21.432ZM14.8715 27.9452L13.4842 27.9069L14.8715 27.9452ZM18.6415 28.93L17.4127 28.285L18.6415 28.93ZM25.5473 15.7752L26.7761 16.4203L25.5473 15.7752ZM20.979 14.3104L19.5917 14.2721L19.5523 15.6983H20.979V14.3104ZM21.159 7.79727L22.5463 7.8356L21.159 7.79727ZM11.712 20.6123L18.6177 7.4575L16.1601 6.16732L9.25431 19.3221L11.712 20.6123ZM11.3685 20.0442C11.6602 20.0442 11.8475 20.354 11.712 20.6123L9.25431 19.3221C8.41962 20.9121 9.57277 22.8199 11.3685 22.8199V20.0442ZM15.0514 20.0442H11.3685V22.8199H15.0514V20.0442ZM16.2588 27.9835L16.4388 21.4704L13.6641 21.3937L13.4842 27.9069L16.2588 27.9835ZM17.4127 28.285C17.1113 28.8592 16.2409 28.6318 16.2588 27.9835L13.4842 27.9069C13.385 31.4949 18.202 32.7532 19.8704 29.5751L17.4127 28.285ZM24.3185 15.1302L17.4127 28.285L19.8704 29.5751L26.7761 16.4203L24.3185 15.1302ZM24.6619 15.6983C24.3702 15.6983 24.1829 15.3884 24.3185 15.1302L26.7761 16.4203C27.6108 14.8303 26.4577 12.9226 24.6619 12.9226V15.6983ZM20.979 15.6983H24.6619V12.9226H20.979V15.6983ZM19.7716 7.75894L19.5917 14.2721L22.3663 14.3488L22.5463 7.8356L19.7716 7.75894ZM18.6177 7.4575C18.9192 6.88327 19.7896 7.11062 19.7716 7.75894L22.5463 7.8356C22.6454 4.24759 17.8285 2.98922 16.1601 6.16732L18.6177 7.4575Z" fill="#0063A8" mask="url(#path-2-inside-1_1_1058)"/>
</svg>
